<?xml version="1.0" encoding="utf-8"?>
<!-- Generator: Adobe Illustrator 16.0.4, SVG Export Plug-In . SVG Version: 6.00 Build 0)  -->
<!DOCTYPE svg PUBLIC "-//W3C//DTD SVG 1.1//EN" "http://www.w3.org/Graphics/SVG/1.1/DTD/svg11.dtd">
<svg version="1.1" id="Layer_1" xmlns="http://www.w3.org/2000/svg" xmlns:xlink="http://www.w3.org/1999/xlink" x="0px" y="0px"
	 width="52px" height="58.583px" viewBox="0 0 52 58.583" enable-background="new 0 0 52 58.583" xml:space="preserve">
<polygon fill="#FFFFFF" stroke="#000000" stroke-miterlimit="10" points="51.179,43.299 25.869,58.061 0.75,44.074 0.943,15.325 
	26.253,0.563 51.372,14.55 "/>
<g>
	<text transform="matrix(1.0348 0 0 1 8.8481 35.9697)"><tspan x="0" y="0" fill="#F7931E" font-family="'MyriadPro-Regular'" font-size="11.0899">c</tspan><tspan x="4.968" y="0" fill="#39B54A" font-family="'MyriadPro-Regular'" font-size="11.0899">l</tspan><tspan x="7.585" y="0" fill="#0071BC" font-family="'MyriadPro-Regular'" font-size="11.0899">u</tspan><tspan x="13.696" y="0" font-family="'MyriadPro-Regular'" font-size="11.0899">stifyR</tspan></text>
	<ellipse fill="#39B54A" cx="10.528" cy="22.42" rx="0.867" ry="0.838"/>
	<ellipse fill="#39B54A" cx="12.843" cy="21.301" rx="0.868" ry="0.84"/>
	<ellipse fill="#39B54A" cx="12.843" cy="23.539" rx="0.868" ry="0.838"/>
	<ellipse fill="#F7931E" cx="4.742" cy="25.045" rx="0.868" ry="0.839"/>
	<ellipse fill="#F7931E" cx="4.742" cy="28.399" rx="0.868" ry="0.839"/>
	<ellipse fill="#F7931E" cx="7.057" cy="26.163" rx="0.868" ry="0.838"/>
	<ellipse fill="#F7931E" cx="8.214" cy="28.399" rx="0.868" ry="0.839"/>
	<ellipse fill="#0071BC" cx="18.629" cy="24.269" rx="0.868" ry="0.838"/>
	<ellipse fill="#0071BC" cx="18.074" cy="21.69" rx="0.868" ry="0.838"/>
	<ellipse fill="#0071BC" cx="20.541" cy="22.42" rx="0.868" ry="0.838"/>
</g>
</svg>
