<?xml version="1.0" encoding="utf-8"?>
<!-- Generator: Adobe Illustrator 23.0.6, SVG Export Plug-In . SVG Version: 6.00 Build 0)  -->
<svg version="1.1" id="Layer_1" xmlns="http://www.w3.org/2000/svg" xmlns:xlink="http://www.w3.org/1999/xlink" x="0px" y="0px"
	 viewBox="0 0 52 58.6" style="enable-background:new 0 0 52 58.6;" xml:space="preserve">
<style type="text/css">
	.st0{fill:#FFFFFF;stroke:#000000;stroke-miterlimit:10;}
	.st1{fill:#F7931E;}
	.st2{font-family:'MyriadPro-Regular';}
	.st3{font-size:11.0899px;}
	.st4{fill:#39B54A;}
	.st5{fill:#0071BC;}
</style>
<polygon class="st0" points="51.2,43.3 25.9,58.1 0.8,44.1 0.9,15.3 26.3,0.6 51.4,14.6 "/>
<g>
	<text transform="matrix(1.0348 0 0 1 8.8481 35.9697)" class="st1 st2 st3">c</text>
	<text transform="matrix(1.0348 0 0 1 13.9888 35.9697)" class="st4 st2 st3">l</text>
	<text transform="matrix(1.0348 0 0 1 16.6968 35.9697)" class="st5 st2 st3">u</text>
	<text transform="matrix(1.0348 0 0 1 23.0205 35.9697)" class="st2 st3">stifyR</text>
	<ellipse class="st4" cx="10.5" cy="22.4" rx="0.9" ry="0.8"/>
	<ellipse class="st4" cx="12.8" cy="21.3" rx="0.9" ry="0.8"/>
	<ellipse class="st4" cx="12.8" cy="23.5" rx="0.9" ry="0.8"/>
	<ellipse class="st1" cx="4.7" cy="25" rx="0.9" ry="0.8"/>
	<ellipse class="st1" cx="4.7" cy="28.4" rx="0.9" ry="0.8"/>
	<ellipse class="st1" cx="7.1" cy="26.2" rx="0.9" ry="0.8"/>
	<ellipse class="st1" cx="8.2" cy="28.4" rx="0.9" ry="0.8"/>
	<ellipse class="st5" cx="18.6" cy="24.3" rx="0.9" ry="0.8"/>
	<ellipse class="st5" cx="18.1" cy="21.7" rx="0.9" ry="0.8"/>
	<ellipse class="st5" cx="20.5" cy="22.4" rx="0.9" ry="0.8"/>
</g>
</svg>
